#!OML:ASF F:\VICON\USERDATA\INSTALL\rory3\rory3.ASF
:FULLY-SPECIFIED
:DEGREES
2083
root 0.763233 9.70389 -7.2942 -36.8776 -26.161 2.12636
lowerback 33.5632 -2.50808 -3.78479
upperback 14.1816 -4.92969 -0.482688
thorax -1.31092 -2.89107 2.97947
lowerneck -11.079 -3.25439 -10.0857
upperneck -2.04002 -3.43407 13.73
head 1.65615 -1.3868 5.67787
rclavicle -4.75095e-014 6.95746e-014
rhumerus -45.9483 39.5275 -97.3474
rradius 58.624
rwrist -20.3091
rhand -18.3247 0.686746
rfingers 7.12502
rthumb 7.95692 -29.1435
lclavicle -4.75095e-014 6.95746e-014
lhumerus 25.5449 -13.0714 36.75
lradius 126.528
lwrist 30.34
lhand -20.5842 23.0978
lfingers 7.12502
lthumb 5.77577 52.9991
rfemur -63.3499 -10.5895 5.62875
rtibia 92.3686
rfoot 13.9823 3.98871
rtoes 9.41646
lfemur -85.0254 26.8706 -13.5424
ltibia 123.293
lfoot 11.9627 -11.4543
ltoes 0.542236
2084
root 0.766327 9.69651 -7.29494 -36.8988 -26.2836 2.01539
lowerback 33.2792 -2.47624 -3.61984
upperback 14.1793 -4.82389 -0.436575
thorax -1.22754 -2.8331 2.89841
lowerneck -10.781 -3.39885 -10.1863
upperneck -2.02415 -3.63877 13.7247
head 1.63924 -1.49735 5.68303
rclavicle -5.0044e-014 1.70955e-014
rhumerus -46.1037 39.3556 -97.32
rradius 58.7383
rwrist -20.3464
rhand -18.323 0.466857
rfingers 7.12502
rthumb 7.9586 -29.3633
lclavicle -5.0044e-014 1.70955e-014
lhumerus 24.2924 -12.9673 37.2111
lradius 126.601
lwrist 29.9218
lhand -21.08 22.9112
lfingers 7.12502
lthumb 5.29715 52.825
rfemur -63.3452 -10.3504 5.60989
rtibia 92.3964
rfoot 14.4052 3.36172
rtoes 10.9581
lfemur -84.7429 26.6729 -13.263
ltibia 122.971
lfoot 11.7443 -11.4269
ltoes 0.789636
2085
root 0.770627 9.69061 -7.29689 -37.1771 -26.19 2.21569
lowerback 32.7372 -2.38808 -3.80904
upperback 14.4252 -4.72666 -0.608626
thorax -1.05197 -2.79695 3.01045
lowerneck -10.8984 -3.36487 -9.99253
upperneck -1.46266 -3.65135 13.6598
head 1.81871 -1.49176 5.62573
rclavicle 3.08116e-015 -1.70955e-014
rhumerus -46.2464 39.1456 -97.361
rradius 58.6597
rwrist -20.3904
rhand -18.4559 0.902675
rfingers 7.12502
rthumb 7.83033 -28.9323
lclavicle 3.08116e-015 -1.70955e-014
lhumerus 22.9483 -12.9398 37.651
lradius 126.592
lwrist 29.5717
lhand -22.0728 22.5715
lfingers 7.12502
lthumb 4.33843 52.507
rfemur -63.2647 -10.2194 5.15177
rtibia 92.4292
rfoot 14.9134 3.38365
rtoes 11.2717
lfemur -84.2024 26.3613 -13.3168
ltibia 122.639
lfoot 11.419 -11.4845
ltoes 0.653117
2086
root 0.774323 9.68411 -7.29641 -37.4586 -26.0653 2.35875
lowerback 32.7237 -2.283 -3.97862
upperback 14.3563 -4.63853 -0.590199
thorax -1.11607 -2.75688 3.10276
lowerneck -10.8921 -3.3905 -9.91673
upperneck -1.00257 -3.728 13.539
head 1.95665 -1.5244 5.5685
rclavicle 4.85532e-014 2.34566e-014
rhumerus -46.4473 38.8929 -97.3118
rradius 58.5958
rwrist -20.3982
rhand -18.6873 1.13307
rfingers 7.12502
rthumb 7.60697 -28.7101
lclavicle 4.85532e-014 2.34566e-014
lhumerus 21.5645 -12.8809 38.2663
lradius 126.495
lwrist 29.0009
lhand -21.8451 21.7644
lfingers 7.12502
lthumb 4.55832 51.6954
rfemur -63.1478 -10.1608 4.69303
rtibia 92.5057
rfoot 15.4609 3.67524
rtoes 11.3624
lfemur -83.7027 26.0907 -13.3641
ltibia 122.394
lfoot 11.0653 -11.6277
ltoes 0.52907
2087
root 0.773436 9.67159 -7.29126 -37.5096 -26.1796 2.15469
lowerback 32.6855 -2.22079 -3.81643
upperback 14.2812 -4.50097 -0.441282
thorax -1.19786 -2.68081 3.1353
lowerneck -10.8322 -3.45838 -9.90365
upperneck -0.646018 -3.84677 13.3777
head 2.06042 -1.58259 5.50731
rclavicle -4.56211e-014 6.36111e-015
rhumerus -46.6486 38.6775 -97.2077
rradius 58.6124
rwrist -20.4876
rhand -18.5218 1.09043
rfingers 7.12502
rthumb 7.76667 -28.7469
lclavicle -4.56211e-014 6.36111e-015
lhumerus 20.1951 -12.7062 39.0354
lradius 126.486
lwrist 28.6836
lhand -21.0489 20.9723
lfingers 7.12502
lthumb 5.32714 50.8853
rfemur -63.1241 -9.96692 4.68057
rtibia 92.605
rfoot 15.7245 4.34082
rtoes 9.98917
lfemur -83.4305 26.208 -13.0681
ltibia 122.306
lfoot 10.6076 -11.9833
ltoes 1.41279
2088
root 0.774463 9.66077 -7.28836 -37.5394 -26.3274 1.95818
lowerback 32.5441 -2.16821 -3.6432
upperback 14.2577 -4.37122 -0.32278
thorax -1.17883 -2.61154 3.12111
lowerneck -10.6697 -3.52591 -9.84744
upperneck -0.506128 -3.96133 13.2323
head 2.08311 -1.64569 5.4457
rclavicle 2.92213e-014 3.18055e-015
rhumerus -46.8324 38.5645 -97.1852
rradius 58.6926
rwrist -20.7889
rhand -18.2918 0.949627
rfingers 7.12502
rthumb 7.98867 -28.8794
lclavicle 2.92213e-014 3.18055e-015
lhumerus 18.8159 -12.429 39.7833
lradius 126.587
lwrist 28.6719
lhand -20.9468 20.9311
lfingers 7.12502
lthumb 5.42568 50.8416
rfemur -63.1183 -9.69529 4.67896
rtibia 92.6814
rfoot 15.7405 5.35158
rtoes 6.77129
lfemur -83.0849 26.4107 -12.7892
ltibia 122.289
lfoot 10.0329 -12.2568
ltoes 2.23903
2089
root 0.779569 9.65498 -7.28931 -37.6662 -26.3588 1.89663
lowerback 32.3407 -2.13732 -3.48308
upperback 14.2837 -4.27701 -0.330258
thorax -1.08342 -2.55806 2.97968
lowerneck -10.2868 -3.61244 -9.67854
upperneck -0.644515 -4.10914 13.0749
head 1.98952 -1.7374 5.36258
rclavicle 1.19271e-014 -2.0276e-014
rhumerus -46.9608 38.3372 -97.2099
rradius 58.7583
rwrist -21.0081
rhand -18.3076 0.782546
rfingers 7.12502
rthumb 7.97345 -29.0471
lclavicle 1.19271e-014 -2.0276e-014
lhumerus 17.5172 -12.1161 40.4577
lradius 126.696
lwrist 28.6435
lhand -20.8405 21.3619
lfingers 7.12502
lthumb 5.52839 51.2698
rfemur -63.0277 -9.48947 4.47929
rtibia 92.7198
rfoot 15.8856 5.566
rtoes 4.98881
lfemur -82.6273 26.348 -12.6703
ltibia 122.177
lfoot 9.5786 -12.3182
ltoes 0.928859
2090
root 0.785381 9.64774 -7.28927 -37.8734 -26.3878 1.81916
lowerback 32.3405 -2.12632 -3.37492
upperback 14.2714 -4.23231 -0.344611
thorax -1.1112 -2.52845 2.88935
lowerneck -10.3031 -3.62886 -9.74316
upperneck -0.244818 -4.16284 13.2781
head 2.12373 -1.75183 5.43226
rclavicle 3.93594e-014 2.82274e-014
rhumerus -47.1251 38.1918 -97.3002
rradius 58.7971
rwrist -21.0507
rhand -18.3132 0.376918
rfingers 7.12502
rthumb 7.96805 -29.4529
lclavicle 3.93594e-014 2.82274e-014
lhumerus 16.0367 -11.6756 41.1652
lradius 126.729
lwrist 28.5257
lhand -20.7192 22.038
lfingers 7.12502
lthumb 5.6455 51.9428
rfemur -62.8284 -9.32317 4.30726
rtibia 92.7415
rfoot 16.1088 5.27716
rtoes 3.93156
lfemur -82.1353 26.2064 -12.4755
ltibia 121.993
lfoot 9.24906 -12.5043
ltoes -0.79619
2091
root 0.794882 9.64313 -7.29257 -38.168 -26.4103 1.79353
lowerback 32.5446 -2.09224 -3.42869
upperback 14.2046 -4.21073 -0.304335
thorax -1.26919 -2.51715 2.97301
lowerneck -10.4416 -3.61921 -9.8032
upperneck 0.306594 -4.18041 13.3476
head 2.31384 -1.74479 5.46022
rclavicle -5.31252e-014 -1.31198e-014
rhumerus -47.3483 38.2144 -97.3496
rradius 58.8152
rwrist -20.9878
rhand -18.2528 0.05895
rfingers 7.12502
rthumb 8.02636 -29.7686
lclavicle -5.31252e-014 -1.31198e-014
lhumerus 14.2922 -11.1335 41.997
lradius 126.677
lwrist 28.275
lhand -21.1023 22.4344
lfingers 7.12502
lthumb 5.27553 52.3487
rfemur -62.5617 -9.14673 4.09785
rtibia 92.7494
rfoot 16.2883 5.3096
rtoes 1.83443
lfemur -81.5223 26.0114 -12.2662
ltibia 121.772
lfoot 9.05789 -12.6126
ltoes -1.03092
2092
root 0.806222 9.64289 -7.29985 -38.4314 -26.3235 1.88135
lowerback 32.6553 -2.05536 -3.58622
upperback 14.1383 -4.2125 -0.290435
thorax -1.37897 -2.52159 3.08826
lowerneck -10.5015 -3.61374 -9.84753
upperneck 0.711429 -4.19475 13.3221
head 2.44449 -1.7438 5.45728
rclavicle -5.725e-014 2.38542e-014
rhumerus -47.5105 38.1966 -97.3059
rradius 58.8168
rwrist -20.8248
rhand -17.9542 0.179419
rfingers 7.12502
rthumb 8.31454 -29.637
lclavicle -5.725e-014 2.38542e-014
lhumerus 12.6049 -10.5614 42.8464
lradius 126.593
lwrist 27.9478
lhand -21.3827 22.3834
lfingers 7.12502
lthumb 5.00483 52.3043
rfemur -62.3798 -9.02328 3.7077
rtibia 92.7677
rfoot 16.4358 5.19145
rtoes -0.151709
lfemur -80.928 25.6305 -12.2484
ltibia 121.498
lfoot 9.01614 -12.45
ltoes -0.233242
2093
root 0.814801 9.64137 -7.30376 -38.6489 -26.2168 2.04199
lowerback 32.5798 -1.98992 -3.73107
upperback 14.1237 -4.16939 -0.332726
thorax -1.35905 -2.50436 3.10668
lowerneck -10.5546 -3.63126 -9.83194
upperneck 1.01162 -4.24313 13.3535
head 2.54801 -1.75995 5.46046
rclavicle -7.30534e-014 3.61788e-014
rhumerus -47.5753 38.0469 -97.2469
rradius 58.8593
rwrist -20.7225
rhand -17.8114 0.0982767
rfingers 7.12502
rthumb 8.45232 -29.7126
lclavicle -7.30534e-014 3.61788e-014
lhumerus 11.1534 -10.0306 43.6339
lradius 126.534
lwrist 27.6691
lhand -21.4695 22.5721
lfingers 7.12502
lthumb 4.92101 52.495
rfemur -62.3083 -8.94481 3.26933
rtibia 92.8273
rfoot 16.3384 4.80533
rtoes -2.19881
lfemur -80.4328 25.2934 -12.3474
ltibia 121.259
lfoot 8.87725 -12.3103
ltoes 0.274216
2094
root 0.821783 9.63857 -7.3011 -38.9787 -26.1787 2.30072
lowerback 32.4774 -1.8536 -3.83225
upperback 14.156 -4.02628 -0.437405
thorax -1.29006 -2.43492 2.99638
lowerneck -10.6399 -3.68222 -9.74833
upperneck 1.32447 -4.35032 13.472
head 2.66899 -1.8008 5.47551
rclavicle 3.72721e-015 -1.82882e-014
rhumerus -47.6747 37.7375 -97.2225
rradius 58.9737
rwrist -20.7312
rhand -18.0429 -0.151156
rfingers 7.12502
rthumb 8.22891 -29.9709
lclavicle 3.72721e-015 -1.82882e-014
lhumerus 9.8051 -9.57251 44.3859
lradius 126.459
lwrist 27.5088
lhand -21.6365 22.9571
lfingers 7.12502
lthumb 4.7598 52.8836
rfemur -62.2136 -8.8175 2.82972
rtibia 92.9387
rfoot 15.9066 4.54368
rtoes -4.66766
lfemur -79.8632 25.1599 -12.4583
ltibia 121.117
lfoot 8.51047 -12.3513
ltoes -0.103655
2095
root 0.826809 9.63024 -7.30762 -39.3038 -26.0678 2.32123
lowerback 32.7073 -1.78496 -3.87515
upperback 14.1556 -3.96401 -0.494074
thorax -1.39453 -2.40078 2.95102
lowerneck -10.6268 -3.73566 -9.6415
upperneck 1.53201 -4.46223 13.5732
head 2.74247 -1.84918 5.48179
rclavicle 1.51573e-014 -4.37326e-014
rhumerus -47.7954 37.47 -97.249
rradius 59.0603
rwrist -20.7492
rhand -18.1632 -0.0615653
rfingers 7.12502
rthumb 8.1128 -29.8858
lclavicle 1.51573e-014 -4.37326e-014
lhumerus 8.39016 -8.97886 45.1163
lradius 126.271
lwrist 27.4472
lhand -21.846 23.1949
lfingers 7.12502
lthumb 4.55745 53.1259
rfemur -61.9713 -8.79795 2.5623
rtibia 93.1041
rfoot 15.1885 4.39979
rtoes -7.11364
lfemur -79.2484 24.8539 -12.3566
ltibia 120.951
lfoot 8.26614 -12.4392
ltoes -0.0487304
2096
root 0.831706 9.62352 -7.30289 -39.237 -26.2537 2.22346
lowerback 32.4499 -1.74463 -3.69044
upperback 14.0979 -3.84354 -0.4537
thorax -1.37186 -2.33043 2.84239
lowerneck -10.3306 -3.80275 -9.73165
upperneck 1.542 -4.57077 13.6952
head 2.71587 -1.90964 5.53086
rclavicle 2.68359e-014 -2.42517e-014
rhumerus -47.9409 37.2571 -97.2463
rradius 59.0708
rwrist -20.7107
rhand -18.0091 0.128975
rfingers 7.12502
rthumb 8.26158 -29.6895
lclavicle 2.68359e-014 -2.42517e-014
lhumerus 6.69315 -8.311 46.019
lradius 126.018
lwrist 27.3989
lhand -21.9834 23.0397
lfingers 7.12502
lthumb 4.42483 52.9735
rfemur -62.1736 -8.70592 2.65436
rtibia 93.3345
rfoot 14.2986 4.20834
rtoes -9.11029
lfemur -79.1327 24.908 -12.1475
ltibia 120.87
lfoot 8.15878 -12.5672
ltoes -0.0763906
2097
root 0.837736 9.61863 -7.30645 -39.3098 -26.3934 2.12257
lowerback 32.4529 -1.66076 -3.61203
upperback 14.0173 -3.70722 -0.347693
thorax -1.47379 -2.2572 2.8768
lowerneck -10.1902 -3.87641 -9.79843
upperneck 1.77758 -4.68942 13.6489
head 2.77644 -1.97069 5.52046
rclavicle 1.61016e-014 2.38542e-015
rhumerus -48.0679 37.0349 -97.1738
rradius 59.0193
rwrist -20.6059
rhand -17.8916 0.0338305
rfingers 7.12502
rthumb 8.37496 -29.7801
lclavicle 1.61016e-014 2.38542e-015
lhumerus 4.71834 -7.58767 47.0351
lradius 125.894
lwrist 27.4521
lhand -21.7276 23.1309
lfingers 7.12502
lthumb 4.67177 53.0594
rfemur -62.1662 -8.58812 2.73528
rtibia 93.589
rfoot 13.2365 4.05375
rtoes -10.4369
lfemur -78.7952 24.8745 -11.8998
ltibia 120.712
lfoot 8.03326 -12.6508
ltoes -0.201775
